<?xml version="1.0" standalone="no"?>
<!DOCTYPE svg PUBLIC "-//W3C//DTD SVG 20010904//EN"
 "http://www.w3.org/TR/2001/REC-SVG-20010904/DTD/svg10.dtd">
<svg version="1.0" xmlns="http://www.w3.org/2000/svg"
 width="8334.000000pt" height="8334.000000pt" viewBox="0 0 8334.000000 8334.000000"
 preserveAspectRatio="xMidYMid meet">

<g transform="translate(0.000000,8334.000000) scale(0.100000,-0.100000)"
fill="#000000" stroke="none">
<path d="M41437 71470 c-61 -16 -117 -49 -166 -98 -193 -194 -117 -523 142
-612 45 -15 110 -19 492 -25 242 -4 458 -8 480 -9 138 -7 283 83 343 212 24
50 27 70 27 157 0 90 -3 106 -29 159 -35 72 -97 136 -163 170 -47 23 -74 30
-153 41 -73 10 -936 14 -973 5z"/>
<path d="M39200 71304 c-47 -7 -211 -34 -365 -60 -314 -51 -360 -66 -438 -142
-61 -59 -94 -122 -109 -210 -29 -170 72 -339 239 -402 75 -28 166 -24 403 18
96 17 256 43 355 57 206 30 273 54 344 126 24 24 58 73 75 109 27 57 31 75 30
150 -1 151 -66 261 -196 330 -57 31 -71 34 -158 36 -52 2 -133 -4 -180 -12z"/>
<path d="M44450 71221 c-98 -30 -189 -107 -237 -201 -25 -50 -28 -65 -28 -155
0 -93 2 -105 32 -166 39 -78 102 -141 176 -174 30 -13 128 -37 227 -55 96 -17
271 -51 388 -76 235 -48 273 -51 353 -28 235 68 341 349 208 556 -70 108 -136
142 -374 192 -498 104 -672 129 -745 107z"/>
<path d="M36485 70674 c-105 -27 -729 -246 -796 -280 -64 -32 -143 -121 -169
-191 -30 -79 -29 -188 1 -268 17 -45 38 -76 89 -126 57 -58 75 -70 134 -88
101 -31 171 -28 291 15 55 20 231 81 390 136 160 55 304 108 321 119 50 30
113 105 142 167 23 49 27 70 27 152 -1 81 -4 103 -27 150 -59 126 -178 207
-313 215 -39 2 -79 2 -90 -1z"/>
<path d="M47260 70477 c-280 -65 -386 -411 -187 -615 58 -60 81 -72 251 -137
82 -30 253 -97 380 -147 224 -89 233 -92 311 -92 113 1 182 29 261 108 75 75
105 147 107 251 2 129 -56 245 -155 311 -26 18 -150 73 -275 122 -526 209
-581 225 -693 199z"/>
<path d="M33785 69537 c-87 -29 -717 -384 -781 -440 -63 -55 -106 -148 -112
-241 -6 -95 10 -161 58 -234 67 -104 178 -164 305 -164 96 0 133 16 400 168
127 72 283 159 348 194 132 71 183 118 225 210 22 47 26 70 26 150 1 82 -3
102 -25 150 -38 81 -99 144 -175 181 -55 27 -80 33 -147 36 -50 2 -98 -2 -122
-10z"/>
<path d="M49910 69263 c-246 -38 -391 -305 -285 -527 39 -82 91 -130 220 -205
61 -35 215 -129 343 -208 129 -79 256 -150 283 -159 33 -11 73 -15 126 -13
243 12 408 246 334 476 -43 132 -70 156 -411 365 -245 150 -397 238 -438 252
-42 15 -132 25 -172 19z"/>
<path d="M41459 68777 c-2 -3 -115 -7 -252 -11 -563 -14 -1218 -78 -1827 -177
-1974 -322 -3890 -1068 -5545 -2157 -1049 -690 -1969 -1481 -2789 -2397 -1230
-1374 -2174 -2959 -2809 -4715 -442 -1224 -711 -2503 -807 -3845 -18 -264 -25
-501 -25 -920 0 -630 15 -956 65 -1460 364 -3605 2082 -6947 4790 -9315 1987
-1739 4425 -2897 7025 -3340 443 -75 1024 -145 1385 -165 58 -4 119 -8 135
-10 87 -12 486 -20 920 -20 472 1 648 7 1065 41 1398 111 2795 434 4090 945
l226 89 59 -10 c90 -15 91 -15 129 48 31 51 42 60 103 86 474 205 1081 516
1573 809 1394 829 2643 1897 3671 3137 1018 1229 1815 2604 2388 4121 339 899
599 1894 746 2864 52 345 106 823 120 1075 3 58 8 119 10 135 2 17 7 104 10
195 4 91 9 171 11 179 6 17 6 1037 0 1071 -2 14 -7 95 -11 180 -5 138 -12 241
-30 475 -117 1468 -510 3051 -1098 4423 -186 432 -457 986 -662 1352 -1559
2782 -3939 4921 -6870 6172 -1000 428 -2024 733 -3110 927 -418 75 -1017 150
-1400 176 -49 3 -108 8 -130 10 -22 2 -101 7 -175 10 -74 3 -162 8 -195 10
-80 6 -780 16 -786 12z m916 -817 c194 -20 372 -80 516 -176 87 -58 229 -196
281 -274 59 -90 438 -749 438 -763 0 -2 -142 -136 -317 -298 -174 -162 -732
-683 -1241 -1159 -508 -476 -955 -888 -993 -917 -90 -68 -231 -136 -344 -168
-54 -14 -383 -66 -830 -130 -407 -58 -1428 -205 -2270 -326 -1510 -218 -1532
-220 -1660 -216 -292 11 -531 119 -733 331 -69 73 -141 173 -343 477 -141 211
-271 413 -289 449 -75 149 -107 273 -115 447 -17 370 176 749 480 945 184 119
777 424 1149 592 927 419 1932 743 2919 941 729 146 1393 224 2212 259 159 7
1042 -4 1140 -14z m1840 -225 c1709 -327 3394 -1013 4862 -1980 668 -441 1243
-894 1827 -1441 l99 -92 -54 -6 c-136 -15 -1112 -87 -1259 -92 -316 -12 -417
19 -825 258 -180 105 -324 188 -725 420 -118 69 -318 185 -445 258 -126 74
-354 205 -505 293 -151 88 -349 202 -440 255 -91 52 -201 117 -245 142 -44 26
-215 125 -380 221 -165 95 -475 275 -690 399 -214 124 -433 250 -485 280 -237
133 -359 206 -410 245 -68 53 -186 175 -227 235 -36 53 -373 641 -373 651 0 4
19 3 43 -2 23 -4 128 -24 232 -44z m306 -1830 c178 -38 243 -68 685 -325 154
-89 396 -230 539 -313 143 -83 339 -196 435 -252 194 -113 395 -229 725 -420
347 -201 1149 -666 1275 -739 63 -37 148 -93 188 -123 89 -68 202 -190 259
-281 54 -85 117 -243 137 -347 30 -157 29 -220 -9 -610 -19 -203 -56 -581 -80
-840 -58 -604 -63 -645 -86 -738 -95 -379 -404 -686 -787 -783 -96 -24 -215
-35 -522 -49 -74 -3 -169 -7 -210 -10 -41 -3 -140 -7 -220 -10 -80 -3 -183 -7
-230 -10 -47 -2 -143 -7 -215 -10 -71 -3 -168 -7 -215 -10 -47 -2 -146 -7
-220 -10 -74 -3 -178 -7 -230 -10 -251 -12 -330 -16 -530 -25 -118 -5 -287
-13 -375 -17 -426 -21 -588 5 -809 130 -130 73 -266 196 -343 308 -17 24 -219
350 -450 724 -231 374 -588 952 -793 1285 -206 333 -393 641 -415 686 -80 157
-114 308 -114 504 -1 307 109 551 356 791 189 183 1327 1244 1385 1291 240
194 573 275 869 213z m-11192 -1321 c258 -37 494 -164 654 -351 85 -98 533
-772 578 -867 126 -269 138 -566 34 -841 -14 -38 -155 -324 -312 -635 -526
-1038 -637 -1260 -1091 -2165 -248 -495 -471 -929 -494 -965 -93 -141 -242
-274 -396 -353 -98 -51 -1880 -682 -2027 -718 -135 -34 -352 -32 -488 4 -232
61 -411 174 -574 361 -113 129 -202 307 -241 481 -22 101 -22 326 1 435 29
133 166 493 363 949 116 269 139 317 296 631 528 1059 1208 2060 1999 2945
331 370 759 798 903 902 229 166 502 230 795 187z m18112 -1159 c212 -37 414
-142 568 -296 156 -157 557 -689 850 -1127 1072 -1605 1787 -3414 2100 -5322
111 -670 130 -958 78 -1152 -63 -236 -201 -443 -392 -587 -229 -173 -427 -238
-700 -228 -150 5 -1607 166 -1738 192 -274 55 -518 217 -672 449 -30 45 -215
408 -413 806 -198 399 -523 1054 -722 1455 -862 1735 -1003 2024 -1026 2095
-28 83 -54 237 -54 316 0 28 11 165 25 305 33 333 116 1207 160 1674 43 467
50 519 81 616 59 187 134 310 273 450 137 137 266 215 447 272 104 33 184 44
534 72 344 27 490 30 601 10z m-10880 -120 c220 -47 404 -149 561 -313 103
-108 6 44 928 -1452 520 -845 820 -1331 894 -1450 104 -167 130 -214 165 -303
86 -216 99 -434 41 -663 -17 -65 -1460 -3547 -1547 -3731 -54 -116 -126 -214
-227 -311 -149 -142 -302 -226 -499 -272 -45 -10 -480 -73 -967 -140 -487 -66
-1029 -141 -1205 -165 -176 -24 -619 -85 -985 -135 -366 -50 -746 -102 -845
-116 -396 -57 -629 -16 -882 152 -147 98 -228 188 -403 448 -47 70 -126 186
-175 259 -50 73 -221 323 -380 557 -159 234 -379 558 -490 720 -110 162 -304
447 -430 633 -127 186 -283 415 -348 509 -221 325 -277 474 -278 747 0 135 14
221 57 356 23 71 424 876 1500 3013 156 310 303 591 326 625 64 96 229 254
326 311 96 57 232 110 335 131 64 13 693 104 3452 500 402 57 746 106 765 109
59 7 238 -4 311 -19z m7611 -4000 c302 -52 561 -220 722 -468 30 -46 149 -274
264 -508 115 -233 454 -914 752 -1514 979 -1969 944 -1893 971 -2075 18 -123
7 -313 -25 -430 -28 -104 -102 -256 -771 -1580 -196 -388 -493 -977 -660
-1310 -167 -333 -327 -641 -356 -685 -107 -159 -286 -307 -462 -382 -45 -19
-129 -46 -187 -59 -128 -29 -198 -32 -1005 -39 -330 -3 -901 -8 -1270 -12
-368 -5 -814 -8 -990 -7 -310 1 -323 2 -416 26 -204 55 -365 145 -503 284 -90
89 -159 192 -254 374 -105 203 -307 592 -367 705 -29 55 -87 168 -130 250
-114 220 -296 570 -395 760 -32 61 -95 182 -140 270 -130 252 -329 633 -370
710 -136 256 -275 535 -299 602 -51 138 -64 229 -58 398 4 125 9 165 31 240
15 50 318 788 672 1640 355 853 693 1665 751 1805 144 350 192 432 335 572
163 158 405 272 629 294 105 10 3164 151 3315 153 77 0 166 -5 216 -14z
m-15630 -1864 c111 -31 228 -83 327 -147 134 -87 235 -198 392 -429 124 -182
234 -344 769 -1130 226 -332 774 -1138 898 -1320 53 -77 123 -180 157 -230
220 -322 274 -419 315 -570 34 -122 37 -314 11 -540 -11 -99 -77 -673 -146
-1275 -303 -2651 -270 -2382 -312 -2515 -84 -267 -273 -489 -529 -622 -123
-64 -196 -84 -674 -187 -245 -52 -665 -143 -933 -201 -268 -57 -529 -109 -580
-113 -239 -22 -491 44 -687 180 -36 25 -276 206 -535 403 -258 197 -668 509
-910 694 -968 736 -1055 804 -1118 871 -174 184 -229 317 -382 930 -135 539
-226 1021 -300 1589 -27 211 -70 667 -81 851 -3 63 -10 178 -14 255 -8 137 -5
1191 4 1250 2 17 7 92 10 167 8 189 36 309 105 463 98 216 323 432 546 524 38
16 399 145 800 286 402 141 1081 381 1510 532 429 152 818 284 865 294 119 26
379 21 492 -10z m20535 -3440 c345 -38 720 -79 833 -91 247 -27 362 -54 495
-119 374 -183 615 -564 615 -972 0 -223 -127 -936 -270 -1516 -353 -1428 -924
-2764 -1718 -4018 -118 -186 -160 -241 -253 -331 -272 -261 -652 -359 -1022
-265 -80 21 -166 57 -632 263 -309 136 -421 204 -532 321 -81 85 -135 162
-186 262 -42 84 -726 1910 -753 2010 -15 56 -19 106 -19 250 0 281 -13 246
431 1130 204 407 554 1105 777 1550 503 1004 551 1096 612 1176 177 232 450
391 725 420 121 12 236 4 897 -70z m-11959 -55 c190 -53 339 -140 478 -280 49
-50 111 -123 137 -162 39 -60 199 -362 604 -1144 47 -91 109 -210 138 -265 29
-55 85 -163 125 -240 40 -77 99 -189 130 -250 32 -60 119 -229 195 -375 76
-146 166 -319 200 -385 246 -471 275 -555 275 -805 0 -282 -91 -512 -292 -737
-40 -45 -436 -488 -879 -985 -443 -497 -919 -1031 -1058 -1188 -317 -357 -357
-398 -456 -472 -126 -95 -289 -167 -450 -199 -84 -17 -285 -17 -375 0 -156 29
-235 61 -515 211 -105 56 -669 355 -900 478 -326 173 -1934 1027 -2060 1094
-157 84 -236 141 -336 245 -227 233 -332 555 -290 894 6 52 33 290 61 529 80
698 137 1199 201 1755 33 286 66 583 74 660 27 256 36 308 67 404 111 351 380
613 734 716 89 26 125 31 2309 330 501 68 1034 142 1185 164 250 36 290 39
440 36 140 -3 179 -7 258 -29z m7213 -4508 c324 -87 569 -285 714 -575 49 -99
552 -1448 577 -1551 19 -72 22 -114 22 -242 -1 -259 -42 -372 -267 -743 -70
-114 -135 -220 -146 -235 -18 -25 -96 -155 -576 -947 -103 -170 -278 -458
-388 -640 -516 -851 -637 -1050 -800 -1320 -253 -420 -313 -509 -397 -595
-206 -209 -469 -320 -762 -320 -103 0 -240 18 -623 80 -97 16 -2012 318 -3015
476 -319 50 -392 69 -530 139 -193 97 -375 285 -473 486 -24 49 -494 1296
-573 1520 -145 412 -70 804 214 1119 32 36 645 724 1362 1530 716 806 1331
1491 1364 1523 149 143 336 235 561 279 56 10 2833 47 3325 44 303 -3 319 -4
411 -28z m-18256 -981 c193 -147 388 -296 435 -332 47 -36 225 -171 395 -301
415 -315 510 -411 599 -606 19 -40 188 -568 375 -1173 188 -605 346 -1113 351
-1130 12 -37 -339 316 -572 575 -619 692 -1199 1491 -1663 2295 -225 390 -552
1034 -592 1169 -4 12 57 -29 158 -106 90 -69 322 -245 514 -391z m5172 -552
c142 -27 231 -62 418 -167 55 -30 154 -83 220 -118 117 -61 508 -269 670 -355
44 -23 154 -82 245 -130 91 -48 197 -104 235 -125 39 -21 543 -288 1120 -595
578 -306 1088 -578 1135 -603 47 -25 173 -91 280 -147 239 -123 292 -158 397
-258 149 -143 207 -246 336 -592 47 -126 163 -437 257 -690 94 -252 181 -498
193 -545 17 -70 21 -114 21 -245 -1 -139 -4 -173 -27 -257 -66 -248 -196 -449
-384 -592 -89 -69 -250 -151 -1353 -693 -482 -237 -526 -253 -750 -260 -168
-6 -244 8 -560 106 -1322 408 -2600 1032 -3743 1828 -328 229 -400 288 -499
412 -84 105 -155 260 -226 491 -33 107 -180 582 -327 1055 -163 525 -273 895
-282 950 -20 121 -13 322 15 425 104 377 387 677 737 779 65 20 1474 324 1540
334 74 10 259 6 332 -8z m15219 -1535 c170 -78 337 -209 433 -338 97 -132 174
-318 202 -490 26 -164 6 -385 -48 -535 -77 -217 -173 -338 -469 -595 -611
-530 -1197 -964 -1832 -1356 -209 -129 -654 -387 -659 -382 -2 2 38 73 90 157
136 223 268 440 497 819 112 184 240 396 285 470 152 249 449 740 901 1485
447 739 489 805 505 805 5 0 48 -18 95 -40z m-6861 -4499 c941 -148 1734 -273
1763 -277 28 -3 52 -10 52 -13 0 -8 -5 -9 -259 -80 -549 -152 -1264 -291
-1871 -366 -153 -18 -661 -62 -825 -70 -66 -4 -136 -9 -155 -11 -19 -2 -264
-6 -545 -8 -460 -4 -705 1 -925 18 -41 3 -149 11 -240 16 -257 17 -973 100
-989 116 -6 5 -10 3 104 59 130 63 714 350 1230 605 534 263 625 293 845 285
71 -3 651 -90 1815 -274z"/>
<path d="M31383 67970 c-85 -18 -154 -68 -553 -399 -212 -176 -225 -189 -264
-271 -26 -55 -31 -77 -31 -145 0 -135 58 -245 168 -316 70 -45 141 -63 228
-57 99 6 160 41 347 196 92 76 232 190 312 254 80 64 155 129 166 145 70 95
92 196 68 311 -41 194 -244 324 -441 282z"/>
<path d="M52254 67600 c-165 -33 -285 -173 -293 -341 -7 -154 35 -230 201
-369 61 -52 200 -173 308 -269 223 -199 261 -222 381 -229 110 -6 190 22 269
95 80 74 112 142 118 249 5 94 -13 162 -60 232 -48 70 -610 562 -686 601 -71
36 -156 47 -238 31z"/>
<path d="M29254 65999 c-106 -25 -186 -103 -547 -529 -175 -206 -202 -257
-202 -380 0 -75 4 -93 32 -152 39 -82 100 -145 179 -184 52 -26 69 -29 154
-29 83 0 102 3 155 28 76 36 79 38 253 242 80 94 194 224 252 290 132 148 155
183 176 265 57 223 -106 443 -338 455 -40 2 -91 0 -114 -6z"/>
<path d="M54311 65559 c-195 -32 -338 -231 -302 -423 17 -92 41 -133 167 -286
66 -80 169 -208 229 -285 157 -200 195 -238 268 -270 206 -93 441 11 507 224
25 80 25 142 0 222 -16 52 -41 92 -133 211 -152 195 -373 464 -419 510 -78 78
-200 116 -317 97z"/>
<path d="M23275 64234 c-229 -39 -439 -109 -641 -214 -226 -116 -393 -240
-570 -422 -313 -322 -517 -733 -591 -1189 -24 -149 -24 -496 0 -644 28 -173
91 -405 111 -405 67 0 343 68 474 116 471 173 877 513 1130 946 262 448 354
971 263 1482 -21 114 -77 326 -89 337 -4 3 -43 0 -87 -7z"/>
<path d="M59960 64215 c-20 -52 -69 -250 -87 -350 -28 -157 -25 -549 4 -710
143 -773 637 -1378 1359 -1664 135 -53 437 -131 510 -131 19 0 69 164 100 330
32 166 43 446 25 622 -86 820 -633 1526 -1406 1813 -121 45 -340 102 -429 111
-65 7 -66 6 -76 -21z"/>
<path d="M27542 63698 c-78 -12 -157 -54 -210 -113 -48 -52 -346 -540 -424
-694 -42 -81 -43 -86 -43 -180 0 -83 4 -104 27 -153 70 -151 240 -240 399
-210 148 27 206 83 348 327 57 99 147 250 200 335 110 179 130 229 131 323 1
229 -200 400 -428 365z"/>
<path d="M55935 63187 c-87 -29 -173 -94 -214 -161 -51 -84 -68 -226 -37 -313
8 -24 62 -125 119 -225 57 -101 143 -257 192 -347 100 -186 131 -225 212 -269
240 -127 517 19 549 291 12 98 -21 177 -226 547 -203 367 -229 402 -338 453
-76 36 -189 46 -257 24z"/>
<path d="M26158 61111 c-143 -57 -177 -102 -279 -360 -45 -113 -113 -291 -152
-396 -65 -177 -70 -195 -70 -270 0 -312 355 -480 602 -284 65 51 93 100 162
288 31 86 94 251 140 366 l84 210 0 100 c0 89 -3 106 -27 156 -36 72 -105 141
-175 176 -76 36 -213 43 -285 14z"/>
<path d="M62090 60799 c0 -3 23 -47 51 -99 80 -149 356 -707 447 -901 800
-1719 1350 -3480 1671 -5349 119 -695 222 -1581 256 -2210 3 -58 8 -127 10
-155 5 -54 13 -237 25 -570 7 -210 4 -1300 -4 -1385 -2 -25 -7 -121 -11 -215
-3 -93 -8 -197 -11 -230 -2 -33 -11 -163 -19 -290 -63 -953 -219 -2047 -430
-3011 -698 -3177 -2099 -6111 -4139 -8659 -1152 -1440 -2532 -2760 -4029
-3853 -634 -464 -1480 -1010 -2007 -1297 -575 -313 -1339 -686 -1995 -972
-880 -384 -2009 -799 -2715 -997 -151 -43 -367 -104 -480 -137 -1380 -397
-2635 -654 -4030 -824 -509 -61 -1131 -117 -1580 -140 -58 -3 -132 -8 -165
-10 -413 -32 -1831 -38 -2330 -10 -44 2 -136 7 -205 10 -69 3 -156 8 -195 10
-38 3 -144 10 -235 15 -697 44 -1590 144 -2330 261 -461 73 -1142 199 -1179
219 -9 5 -131 34 -271 65 -467 103 -1149 278 -1610 415 -91 27 -255 73 -365
104 -885 245 -1696 533 -2666 947 -1255 535 -2263 1078 -3374 1819 -925 616
-1719 1239 -2575 2018 -235 215 -968 941 -1181 1172 -1109 1201 -2028 2443
-2826 3820 -949 1637 -1693 3459 -2158 5285 -315 1233 -521 2501 -605 3715 -5
85 -12 182 -15 215 -2 33 -9 166 -15 295 -5 129 -12 278 -15 331 -7 116 -7
1245 -1 1349 3 41 8 154 11 250 3 96 8 204 10 240 3 36 10 142 15 235 73 1201
278 2517 581 3727 409 1638 970 3114 1766 4648 42 80 71 141 65 135 -12 -12
-239 -397 -356 -604 -1618 -2855 -2577 -6090 -2771 -9351 -8 -140 -17 -289
-20 -330 -24 -388 -27 -1473 -4 -1965 108 -2346 557 -4558 1359 -6700 1352
-3611 3646 -6810 6641 -9257 1712 -1398 3628 -2528 5679 -3348 577 -231 1570
-581 2198 -775 2030 -626 4294 -1026 6342 -1120 69 -3 152 -8 185 -10 361 -25
2099 -26 2325 -1 19 3 105 7 190 11 85 3 211 10 280 15 69 5 168 12 220 15
156 10 551 44 765 65 1750 177 3456 524 5139 1045 335 104 1406 465 1696 573
1210 448 2462 1051 3585 1725 2225 1337 4180 3046 5807 5078 1609 2009 2846
4281 3662 6719 520 1555 876 3248 1021 4845 8 94 17 193 20 220 22 233 52 725
62 1041 15 442 7 1745 -12 1866 -2 13 -6 86 -9 163 -24 521 -112 1395 -201
1984 -428 2830 -1359 5443 -2810 7891 -125 212 -135 228 -135 219z"/>
<path d="M57127 60556 c-128 -53 -206 -151 -229 -288 -15 -84 -8 -111 142
-548 133 -391 153 -432 244 -495 132 -91 313 -87 439 9 94 71 156 211 143 326
-3 30 -50 188 -105 350 -128 382 -156 455 -193 513 -37 58 -124 122 -192 142
-76 23 -180 19 -249 -9z"/>
<path d="M16788 60322 l-46 -3 -8 -77 c-12 -116 -9 -385 5 -492 96 -729 540
-1357 1187 -1678 313 -156 603 -225 951 -226 99 -1 184 2 188 6 32 31 29 479
-4 658 -85 469 -285 854 -611 1180 -334 334 -761 547 -1233 615 -104 15 -332
24 -429 17z"/>
<path d="M66230 60319 c-435 -42 -836 -203 -1170 -469 -108 -86 -297 -281
-377 -386 -239 -321 -391 -708 -432 -1104 -10 -98 -7 -378 5 -462 7 -47 7 -47
52 -54 68 -10 331 2 452 21 710 111 1310 551 1625 1190 139 283 210 568 222
890 5 134 -8 359 -20 372 -9 8 -274 10 -357 2z"/>
<path d="M21991 59629 c-427 -38 -817 -238 -1079 -552 -66 -79 -132 -170 -132
-181 0 -10 180 -155 247 -199 197 -128 428 -214 672 -248 119 -17 400 -6 516
20 382 84 699 281 930 576 101 130 100 119 19 193 -183 169 -450 303 -715 361
-82 17 -307 43 -349 40 -8 -1 -57 -6 -109 -10z"/>
<path d="M61090 59629 c-272 -22 -530 -112 -762 -268 -57 -38 -132 -96 -167
-128 l-64 -59 25 -40 c166 -263 487 -507 806 -614 182 -61 276 -74 512 -74
184 0 229 3 313 22 265 59 491 168 692 332 120 98 116 88 60 171 -71 104 -225
260 -344 350 -124 92 -320 193 -465 239 -185 58 -415 84 -606 69z"/>
<path d="M25315 58353 c-116 -42 -200 -129 -235 -243 -22 -73 -86 -392 -128
-641 -22 -128 -27 -180 -21 -228 14 -121 94 -232 207 -288 51 -25 68 -28 157
-28 87 0 107 3 157 27 113 53 185 152 212 294 136 698 138 710 134 779 -6 133
-91 255 -215 312 -74 34 -197 41 -268 16z"/>
<path d="M57893 57771 c-134 -50 -217 -149 -243 -289 -10 -55 -7 -83 20 -245
16 -100 45 -286 64 -413 30 -208 37 -238 66 -293 97 -181 319 -247 503 -149
128 69 204 210 191 358 -6 65 -89 612 -109 718 -28 146 -96 242 -212 298 -76
37 -202 44 -280 15z"/>
<path d="M14260 55640 c-179 -11 -392 -41 -570 -82 -137 -31 -437 -123 -454
-139 -22 -20 48 -334 124 -562 339 -1014 1142 -1806 2164 -2137 337 -109 663
-160 1021 -160 290 0 540 28 799 91 123 30 389 112 415 128 19 12 3 119 -45
314 -118 466 -338 912 -641 1292 -185 234 -487 510 -748 685 -614 411 -1340
611 -2065 570z"/>
<path d="M68745 55644 c-874 -51 -1645 -392 -2245 -994 -469 -471 -782 -1055
-915 -1709 -14 -68 -25 -132 -25 -142 0 -14 31 -28 153 -68 227 -74 396 -113
632 -147 154 -21 550 -30 716 -14 671 60 1265 296 1809 716 141 109 419 384
528 521 358 454 587 948 692 1497 11 60 19 111 16 113 -12 12 -284 98 -404
127 -141 35 -334 69 -452 81 -36 4 -81 8 -100 10 -63 6 -344 12 -405 9z"/>
<path d="M20925 55544 c-462 -69 -839 -293 -1099 -653 -54 -76 -165 -274 -166
-297 0 -16 192 -127 300 -172 202 -86 388 -124 610 -124 278 0 485 48 723 168
313 156 589 439 722 741 l23 52 -81 53 c-145 93 -330 166 -538 213 -72 16
-421 29 -494 19z"/>
<path d="M61995 55539 c-96 -14 -264 -59 -344 -91 -155 -61 -351 -172 -351
-198 0 -22 82 -171 148 -270 75 -113 289 -327 407 -407 203 -137 435 -227 679
-263 97 -15 336 -15 436 0 223 32 436 109 618 223 45 28 82 58 82 65 0 17 -50
116 -102 200 -69 112 -150 212 -260 318 -213 204 -465 337 -773 406 -103 23
-436 34 -540 17z"/>
<path d="M24953 55482 c-96 -34 -164 -95 -211 -187 -36 -73 -41 -125 -47 -554
-2 -194 0 -369 5 -399 13 -77 46 -139 105 -197 210 -211 570 -97 624 197 5 31
11 202 12 380 1 177 3 343 4 368 9 166 -74 314 -213 378 -76 35 -203 41 -279
14z"/>
<path d="M58163 54896 c-125 -41 -220 -139 -251 -261 -6 -22 -13 -202 -17
-400 -3 -198 -9 -370 -12 -382 -3 -12 0 -53 7 -91 45 -267 329 -396 566 -257
55 32 101 86 135 160 37 78 43 156 43 615 l1 355 -32 66 c-63 128 -176 200
-318 206 -49 2 -96 -3 -122 -11z"/>
<path d="M25160 52608 c-158 -23 -288 -154 -309 -312 -13 -94 102 -831 144
-923 33 -74 96 -138 174 -176 60 -29 74 -32 161 -32 84 0 102 3 157 29 116 53
200 174 210 300 4 43 -5 123 -31 271 -19 116 -47 289 -61 387 -28 195 -40 237
-84 302 -80 116 -218 174 -361 154z"/>
<path d="M57895 52007 c-75 -28 -165 -109 -199 -180 -14 -29 -33 -90 -41 -137
-9 -47 -43 -222 -77 -390 -68 -343 -72 -412 -28 -503 35 -74 102 -142 178
-179 61 -30 74 -33 162 -33 85 0 101 3 155 29 72 35 143 104 173 168 23 46 79
304 147 668 41 223 41 272 -5 369 -36 76 -100 140 -176 176 -82 40 -202 45
-289 12z"/>
<path d="M21420 51974 c-25 -3 -101 -14 -169 -25 -802 -128 -1478 -630 -1831
-1360 -22 -46 -40 -88 -40 -93 0 -19 190 -135 345 -211 456 -225 980 -302
1475 -219 702 118 1316 528 1686 1127 65 105 164 299 164 322 0 20 -150 118
-292 191 -249 127 -484 203 -778 250 -93 15 -466 27 -560 18z"/>
<path d="M61413 51964 c-291 -35 -627 -142 -873 -276 -118 -64 -260 -159 -260
-173 0 -22 123 -257 184 -350 143 -219 341 -441 526 -589 283 -226 651 -404
996 -481 369 -83 765 -81 1119 6 244 60 560 196 763 328 78 51 91 64 84 78 -5
10 -18 36 -28 58 -182 400 -503 768 -891 1022 -272 179 -632 315 -978 368
-147 23 -491 28 -642 9z"/>
<path d="M25796 49789 c-174 -25 -308 -183 -308 -364 0 -61 10 -101 76 -297
96 -286 178 -513 206 -567 31 -61 97 -123 166 -157 52 -25 70 -28 154 -29 84
0 102 3 157 29 146 67 237 232 212 386 -4 28 -36 128 -70 223 -34 94 -92 262
-129 373 -77 229 -78 232 -133 291 -50 54 -132 97 -212 112 -32 6 -59 10 -59
10 -1 -1 -27 -5 -60 -10z"/>
<path d="M14475 49700 c-651 -41 -1249 -251 -1773 -623 l-112 -80 63 -121
c285 -546 727 -1013 1258 -1331 419 -250 903 -410 1391 -459 717 -72 1443 89
2063 459 142 84 324 211 331 230 7 17 -87 200 -171 335 -527 838 -1355 1390
-2325 1549 -238 39 -508 54 -725 41z"/>
<path d="M68555 49703 c-224 -8 -526 -54 -753 -114 -866 -230 -1617 -810
-2059 -1589 -50 -89 -113 -214 -113 -226 0 -7 203 -147 301 -207 456 -279 950
-440 1498 -488 169 -15 525 -7 686 16 594 81 1133 298 1587 637 421 316 730
678 983 1152 l58 109 -29 24 c-16 13 -81 59 -144 102 -429 292 -904 476 -1415
550 -121 18 -471 43 -515 38 -8 -1 -46 -3 -85 -4z"/>
<path d="M57213 49230 c-111 -23 -202 -93 -252 -192 -17 -35 -77 -182 -133
-328 -55 -146 -117 -305 -136 -355 -63 -164 -43 -299 64 -414 78 -85 151 -116
269 -116 80 0 97 3 155 31 66 31 140 96 165 145 21 40 168 409 243 609 60 162
65 181 65 255 0 113 -28 181 -107 261 -45 44 -77 67 -120 83 -68 25 -153 34
-213 21z"/>
<path d="M22930 47803 c-99 -7 -301 -36 -411 -59 -1117 -233 -2026 -1049
-2373 -2133 -71 -221 -142 -560 -120 -580 24 -24 333 -107 499 -136 261 -44
617 -59 856 -35 739 75 1406 389 1930 910 230 228 378 420 529 685 197 348
311 684 385 1137 l6 37 -113 35 c-221 69 -450 114 -688 136 -105 9 -391 11
-500 3z"/>
<path d="M59890 47799 c-203 -16 -477 -72 -700 -142 l-75 -23 1 -55 c3 -124
82 -444 166 -669 282 -758 835 -1370 1562 -1730 349 -172 665 -266 1061 -315
169 -21 631 -14 800 13 171 27 341 65 490 111 l120 37 -3 39 c-6 68 -61 335
-93 445 -155 532 -422 984 -809 1370 -532 531 -1217 851 -1970 919 -130 12
-407 12 -550 0z"/>
<path d="M26860 47112 c-74 -28 -103 -48 -153 -101 -73 -78 -91 -126 -92 -248
l0 -101 55 -108 c112 -219 349 -631 389 -676 26 -30 67 -60 109 -80 61 -30 74
-33 162 -33 84 0 102 3 157 29 155 71 245 258 204 423 -7 26 -61 134 -120 238
-60 105 -148 264 -197 354 -105 193 -142 239 -231 283 -56 27 -78 32 -152 35
-63 2 -98 -2 -131 -15z"/>
<path d="M55953 46596 c-102 -33 -164 -96 -263 -266 -41 -69 -127 -212 -192
-319 -148 -240 -155 -255 -167 -327 -45 -284 228 -503 502 -403 121 45 155 92
558 774 9 17 25 57 34 89 48 166 -35 353 -192 431 -48 24 -73 29 -148 32 -57
2 -105 -2 -132 -11z"/>
<path d="M28408 44676 c-135 -55 -217 -169 -232 -319 -4 -50 15 -151 36 -189
48 -85 503 -640 566 -691 145 -115 370 -96 495 43 76 84 92 128 92 250 -1 137
-10 157 -162 340 -65 80 -183 224 -260 321 -78 97 -156 187 -174 200 -101 72
-250 91 -361 45z"/>
<path d="M54303 44226 c-85 -28 -132 -69 -292 -256 -87 -102 -205 -237 -263
-301 -121 -135 -140 -163 -163 -243 -49 -170 36 -355 202 -437 41 -21 63 -24
153 -24 170 0 199 20 479 340 192 219 309 363 330 403 32 62 45 160 31 229
-26 124 -99 219 -210 271 -67 31 -199 40 -267 18z"/>
<path d="M26278 43895 c-2 -1 -70 -5 -153 -8 -173 -7 -336 -27 -520 -63 -924
-180 -1739 -708 -2295 -1485 -427 -596 -663 -1320 -675 -2069 -2 -184 9 -437
20 -448 22 -22 524 -30 720 -12 739 68 1407 335 1980 790 166 132 453 418 584
583 430 542 681 1142 778 1857 14 106 18 201 18 445 0 171 -4 326 -8 346 -9
45 -12 46 -187 54 -74 4 -163 8 -197 9 -34 2 -64 2 -65 1z"/>
<path d="M56830 43888 c-96 -4 -185 -10 -197 -13 -18 -4 -23 -15 -29 -72 -13
-107 -10 -566 4 -688 87 -752 345 -1381 801 -1950 115 -144 367 -400 510 -518
568 -470 1233 -749 1986 -832 210 -24 745 -18 771 8 9 9 24 240 24 388 1 696
-199 1387 -573 1974 -396 624 -987 1125 -1662 1413 -405 173 -905 284 -1300
291 -60 1 -121 3 -135 4 -14 1 -104 -1 -200 -5z"/>
<path d="M16445 42809 c-676 -30 -1325 -263 -1870 -673 -211 -158 -471 -413
-628 -615 l-87 -113 60 -68 c102 -114 315 -299 485 -421 503 -361 1077 -570
1700 -620 171 -14 548 -6 695 15 781 111 1441 441 1975 988 125 127 299 331
327 381 8 16 -10 38 -124 150 -681 673 -1574 1017 -2533 976z"/>
<path d="M66560 42809 c-406 -21 -785 -109 -1161 -270 -406 -173 -812 -455
-1100 -762 l-77 -81 62 -81 c502 -660 1248 -1120 2057 -1269 369 -68 803 -74
1163 -15 685 112 1304 423 1812 911 63 61 124 124 135 139 l20 29 -68 89
c-301 392 -688 714 -1138 946 -516 266 -1117 394 -1705 364z"/>
<path d="M30403 42566 c-238 -77 -336 -347 -202 -557 50 -79 611 -566 698
-607 191 -88 427 4 502 196 34 87 33 208 -4 287 -36 76 -42 83 -282 290 -110
95 -245 213 -300 262 -124 109 -179 136 -290 140 -48 2 -97 -3 -122 -11z"/>
<path d="M52251 42171 c-29 -11 -58 -24 -65 -29 -6 -5 -85 -69 -176 -143 -91
-75 -231 -188 -313 -252 -81 -65 -163 -139 -182 -165 -119 -161 -75 -410 92
-521 98 -65 239 -80 345 -37 84 35 659 493 726 579 17 23 42 73 53 111 54 172
-27 361 -188 441 -78 39 -210 46 -292 16z"/>
<path d="M32705 40817 c-162 -54 -264 -193 -265 -359 0 -98 61 -227 133 -282
56 -42 381 -241 612 -374 127 -73 169 -85 268 -80 105 6 175 38 246 113 77 81
95 129 96 250 0 93 -2 105 -32 165 -44 89 -84 124 -258 225 -82 48 -219 131
-305 183 -242 150 -276 165 -373 169 -50 2 -98 -2 -122 -10z"/>
<path d="M49962 40519 c-67 -8 -77 -13 -357 -171 -136 -76 -214 -119 -373
-204 -101 -54 -162 -121 -195 -214 -96 -267 137 -544 412 -490 71 13 326 146
698 362 171 99 235 194 236 348 1 89 -19 155 -68 222 -82 112 -209 165 -353
147z"/>
<path d="M29515 40481 c-841 -319 -1522 -857 -2000 -1581 -364 -550 -573
-1122 -662 -1805 -28 -220 -25 -741 6 -970 48 -362 133 -692 261 -1017 45
-114 239 -509 269 -547 l18 -24 104 38 c448 164 867 403 1229 703 155 128 443
419 563 569 442 552 732 1189 851 1863 51 292 59 385 60 720 0 270 -3 339 -22
485 -65 494 -188 905 -397 1330 -109 220 -141 275 -163 274 -9 0 -62 -17 -117
-38z"/>
<path d="M53632 40428 c-757 -1371 -678 -3037 206 -4323 442 -642 1069 -1153
1788 -1454 131 -54 303 -116 308 -110 15 19 129 233 173 327 265 562 395 1140
396 1757 1 636 -137 1237 -418 1810 -451 922 -1217 1628 -2177 2009 -238 94
-214 96 -276 -16z"/>
<path d="M35310 39500 c-113 -24 -217 -108 -268 -218 -23 -48 -27 -71 -27
-147 0 -82 3 -97 33 -157 56 -114 108 -152 324 -237 488 -194 577 -224 668
-229 96 -4 166 16 239 68 167 122 194 384 55 539 -62 69 -83 80 -320 170 -115
43 -284 108 -376 144 -177 70 -245 84 -328 67z"/>
<path d="M47145 39225 c-99 -36 -276 -97 -393 -136 -274 -91 -326 -130 -383
-280 -74 -195 50 -431 253 -479 104 -25 147 -18 435 79 421 141 518 179 575
223 97 77 143 182 136 312 -6 104 -38 174 -113 245 -75 71 -129 93 -240 98
-89 3 -91 3 -270 -62z"/>
<path d="M38035 38636 c-172 -54 -277 -211 -262 -393 9 -119 90 -238 197 -293
44 -23 308 -80 670 -146 184 -33 211 -36 267 -26 125 21 229 99 281 210 24 50
27 69 27 157 0 89 -3 106 -29 157 -33 66 -118 151 -178 178 -24 10 -128 35
-233 54 -104 20 -280 54 -389 76 -207 42 -284 47 -351 26z"/>
<path d="M44565 38533 c-16 -2 -84 -13 -150 -24 -66 -11 -233 -38 -372 -59
-282 -42 -332 -59 -406 -132 -217 -218 -93 -587 214 -633 48 -7 323 29 678 90
225 39 273 57 348 131 24 25 57 71 71 102 24 50 27 70 27 157 0 87 -3 107 -27
157 -48 104 -149 182 -266 207 -53 11 -62 11 -117 4z"/>
<path d="M40895 38270 c-254 -85 -338 -402 -159 -600 81 -90 149 -115 329
-124 331 -15 661 -18 724 -6 125 23 214 85 269 187 79 150 47 345 -75 453 -96
84 -154 97 -453 99 -129 0 -311 3 -405 6 -152 5 -176 3 -230 -15z"/>
<path d="M32535 38219 c-14 -42 -8 -280 9 -376 18 -99 72 -265 113 -347 47
-95 137 -221 218 -305 222 -233 490 -361 819 -391 139 -13 192 -7 202 22 11
36 8 260 -5 343 -52 326 -230 624 -490 821 -121 92 -297 177 -446 215 -98 25
-147 32 -266 36 l-147 6 -7 -24z"/>
<path d="M49999 38224 c-382 -69 -720 -316 -900 -657 -103 -197 -156 -431
-146 -645 3 -63 8 -117 12 -120 13 -13 230 -4 319 12 268 51 487 166 676 356
240 241 370 555 370 895 0 55 -3 117 -6 138 l-7 37 -121 -1 c-66 0 -155 -7
-197 -15z"/>
<path d="M35315 37368 c-176 -117 -322 -326 -374 -538 -52 -214 -28 -447 66
-635 28 -54 117 -188 138 -205 17 -14 118 54 201 137 196 196 298 485 264 753
-14 111 -49 228 -95 320 -35 68 -122 191 -141 197 -5 2 -32 -11 -59 -29z"/>
<path d="M47422 37329 c-67 -91 -124 -210 -154 -319 -29 -110 -32 -336 -5
-443 41 -165 131 -323 251 -443 65 -65 181 -153 190 -143 2 2 27 35 55 73 303
402 222 983 -181 1286 -43 33 -85 60 -91 60 -7 0 -36 -32 -65 -71z"/>
<path d="M48575 36418 c-1036 -956 -2344 -1774 -3695 -2311 -1048 -417 -2121
-684 -3239 -808 -202 -22 -206 -22 -375 -5 -1542 156 -3118 638 -4507 1376
-877 467 -1781 1103 -2462 1733 -187 173 -126 99 106 -129 233 -230 461 -440
661 -612 1765 -1517 3888 -2507 6213 -2897 l152 -25 203 34 c1778 304 3447
966 4933 1957 640 427 1182 863 1746 1405 161 155 398 395 388 393 -2 0 -58
-50 -124 -111z"/>
<path d="M39541 36052 c-197 -200 -328 -445 -388 -724 -26 -118 -26 -438 0
-557 45 -207 127 -395 243 -558 68 -95 252 -283 277 -283 8 0 51 36 95 80 360
357 504 864 386 1353 -55 225 -154 419 -306 597 -63 73 -187 190 -203 190 -4
0 -51 -44 -104 -98z"/>
<path d="M43080 36033 c-258 -262 -397 -575 -417 -937 -21 -399 129 -786 419
-1080 l98 -98 57 50 c239 208 406 499 470 819 26 133 24 404 -5 540 -42 193
-121 380 -226 533 -53 77 -250 290 -269 290 -6 0 -63 -53 -127 -117z"/>
<path d="M19675 36133 c-317 -19 -743 -101 -1065 -205 -326 -105 -718 -287
-998 -463 -485 -305 -936 -735 -1265 -1207 -180 -259 -366 -601 -476 -878 -74
-187 -74 -170 6 -217 547 -326 1118 -518 1783 -600 224 -27 754 -25 986 5
1182 150 2204 717 2932 1627 206 257 424 611 558 905 64 141 157 370 152 375
-28 23 -253 146 -383 210 -523 257 -1073 405 -1650 445 -133 9 -443 11 -580 3z"/>
<path d="M37350 36104 c-94 -85 -196 -241 -241 -370 -33 -94 -49 -198 -49
-310 0 -268 109 -512 308 -689 l43 -38 55 54 c213 209 314 506 270 794 -19
127 -63 250 -126 351 -51 83 -141 189 -190 224 l-29 21 -41 -37z"/>
<path d="M45379 36063 c-112 -116 -169 -207 -218 -348 -58 -162 -66 -373 -21
-540 41 -157 172 -371 274 -449 l36 -27 61 58 c329 313 382 816 126 1193 -32
46 -165 190 -177 190 -4 0 -40 -35 -81 -77z"/>
<path d="M63040 36130 c-616 -58 -1122 -200 -1642 -460 -196 -98 -348 -187
-348 -204 0 -26 104 -276 181 -436 518 -1071 1424 -1873 2547 -2254 347 -118
652 -183 1032 -221 194 -19 682 -14 870 9 521 64 964 191 1414 405 135 64 379
199 414 228 l21 18 -68 166 c-332 818 -894 1515 -1611 1998 -604 407 -1262
650 -2000 737 -158 18 -667 27 -810 14z"/>
<path d="M34784 34944 c-222 -37 -438 -139 -623 -295 -141 -118 -285 -326
-351 -507 -35 -97 -65 -210 -57 -218 14 -15 187 -66 265 -79 204 -34 391 -24
577 30 337 98 617 328 774 635 65 126 131 326 116 350 -10 16 -190 69 -287 85
-113 18 -304 18 -414 -1z"/>
<path d="M47678 34949 c-72 -10 -166 -34 -246 -62 l-64 -22 6 -41 c7 -58 63
-218 101 -295 77 -151 215 -322 350 -432 65 -53 187 -126 276 -165 291 -127
610 -141 916 -40 l92 30 -6 32 c-3 17 -21 78 -40 136 -171 523 -660 874 -1207
869 -67 -1 -147 -5 -178 -10z"/>
<path d="M37730 33374 c-14 -2 -59 -9 -100 -15 -254 -36 -547 -148 -768 -291
-293 -192 -534 -460 -687 -765 -96 -193 -170 -433 -195 -633 -15 -125 -13
-460 3 -465 31 -10 234 -12 348 -4 374 26 736 160 1031 381 100 75 269 237
348 333 225 275 376 621 425 979 17 123 18 456 2 473 -9 8 -361 14 -407 7z"/>
<path d="M44738 33373 c-24 -4 -27 -9 -31 -61 -3 -31 -3 -124 -1 -207 22 -996
796 -1817 1794 -1903 126 -11 360 -6 375 9 15 15 19 306 6 418 -70 592 -377
1097 -865 1422 -336 224 -698 331 -1099 328 -84 -1 -164 -4 -179 -6z"/>
<path d="M40863 32559 c-207 -45 -458 -153 -643 -276 -308 -204 -528 -458
-691 -798 -229 -477 -252 -1041 -63 -1536 l25 -67 84 19 c47 10 132 34 190 53
707 237 1216 855 1321 1602 22 160 15 451 -15 609 -24 127 -70 291 -103 363
l-23 49 -82 -18z"/>
<path d="M41871 32485 c-179 -495 -151 -1047 78 -1520 263 -545 756 -937 1344
-1068 l67 -15 14 26 c24 48 84 245 104 347 134 658 -77 1335 -560 1801 -248
240 -550 408 -889 494 -125 32 -122 34 -158 -65z"/>
<path d="M27652 29699 c-1113 -68 -2125 -470 -2992 -1187 -149 -124 -511 -485
-631 -632 -428 -519 -727 -1061 -932 -1686 -81 -247 -154 -544 -191 -782 -4
-30 -3 -30 226 -106 381 -126 770 -208 1178 -246 158 -15 596 -20 760 -9 1231
84 2364 590 3242 1447 591 578 1025 1279 1282 2070 80 246 186 686 186 773 0
25 -9 29 -201 93 -412 138 -800 218 -1239 256 -166 15 -523 19 -688 9z"/>
<path d="M55110 29699 c-397 -25 -779 -91 -1148 -199 -170 -50 -390 -126 -406
-140 -4 -5 4 -70 18 -147 133 -693 389 -1323 770 -1898 857 -1290 2253 -2117
3811 -2256 157 -14 590 -18 765 -7 432 28 862 114 1298 260 159 53 212 75 212
87 0 9 -18 104 -40 211 -190 939 -619 1776 -1272 2480 -413 445 -943 835
-1503 1105 -577 279 -1160 439 -1810 495 -163 15 -530 19 -695 9z"/>
<path d="M19390 22188 c-234 -20 -548 -87 -780 -166 -1167 -396 -1995 -1405
-2154 -2624 -93 -711 15 -1398 313 -1996 480 -965 1400 -1614 2491 -1757 710
-92 1429 27 2029 337 923 478 1547 1362 1695 2403 28 198 35 316 31 585 -4
326 -28 528 -95 805 -174 721 -615 1379 -1209 1804 -352 253 -735 428 -1146
526 -168 40 -355 70 -525 85 -141 12 -506 11 -650 -2z m665 -1432 c340 -59
597 -185 831 -408 294 -282 471 -667 525 -1148 15 -135 15 -447 0 -575 -32
-267 -95 -488 -196 -690 -87 -173 -176 -296 -315 -435 -248 -249 -534 -387
-905 -436 -180 -24 -497 -14 -661 20 -458 96 -807 346 -1041 745 -175 296
-253 611 -259 1046 -4 321 25 537 107 791 123 379 383 711 701 893 220 125
393 178 708 215 76 9 419 -4 505 -18z"/>
<path d="M53475 22189 c-628 -60 -1130 -270 -1493 -623 -171 -166 -290 -339
-372 -539 -171 -420 -183 -975 -29 -1397 130 -354 469 -703 876 -902 261 -127
482 -207 1273 -463 429 -139 607 -230 776 -399 125 -125 171 -250 161 -431
-10 -160 -57 -267 -165 -372 -215 -209 -690 -254 -997 -95 -96 50 -228 182
-277 277 -42 81 -75 184 -92 287 l-12 73 -832 2 -832 2 0 -64 c0 -98 27 -282
60 -411 81 -313 219 -557 450 -797 243 -252 507 -417 875 -547 564 -198 1324
-230 1908 -81 609 156 1083 509 1344 1001 154 290 220 584 210 945 -12 433
-115 706 -380 1005 -168 189 -350 325 -602 449 -280 138 -550 245 -1045 413
-418 142 -700 260 -865 363 -134 83 -234 213 -265 344 -29 123 -10 299 45 419
57 125 221 243 387 279 94 20 289 20 384 -1 232 -50 416 -186 500 -370 29 -63
64 -196 64 -243 l0 -33 851 0 852 0 -7 73 c-47 485 -202 853 -489 1153 -354
371 -819 586 -1449 670 -141 19 -665 27 -813 13z"/>
<path d="M12320 18895 l0 -3215 1810 0 1810 0 0 605 0 605 -1025 0 -1025 0 0
2610 0 2610 -785 0 -785 0 0 -3215z"/>
<path d="M23890 18895 l0 -3215 785 0 785 0 0 1215 0 1215 184 0 184 0 153
-277 c84 -153 185 -336 224 -408 40 -71 110 -200 157 -285 47 -85 206 -373
353 -640 147 -267 308 -560 359 -652 l91 -168 884 0 c811 0 883 1 877 16 -4 9
-213 370 -465 803 -919 1576 -1003 1722 -1000 1725 2 1 58 21 124 45 513 182
882 500 1100 946 133 274 194 546 195 867 0 542 -175 1011 -510 1362 -283 296
-687 506 -1155 601 -301 61 -226 58 -1842 62 l-1483 4 0 -3216z m2689 1905
c218 -23 370 -88 496 -215 152 -152 218 -341 209 -605 -10 -318 -142 -551
-378 -665 -50 -24 -129 -54 -176 -67 -82 -21 -103 -22 -677 -25 l-593 -4 0
795 0 796 509 0 c281 0 554 -5 610 -10z"/>
<path d="M29860 18895 l0 -3215 1970 0 1970 0 0 630 0 630 -1185 0 -1185 0 0
705 0 705 1045 2 1045 3 0 590 c0 325 0 596 0 603 0 9 -216 12 -1045 12
l-1045 0 0 650 0 650 1183 0 1182 -1 3 626 2 625 -1970 0 -1970 0 0 -3215z"/>
<path d="M34813 18898 l2 -3213 782 -3 783 -2 2 1926 3 1926 515 -1373 c283
-756 607 -1621 720 -1924 l205 -550 635 -2 635 -3 124 333 c68 182 263 706
433 1162 170 457 331 889 358 960 73 197 474 1272 498 1335 l21 55 0 -1922 1
-1923 785 0 785 0 0 3215 0 3215 -923 0 -923 0 -261 -652 c-144 -359 -526
-1310 -848 -2113 -322 -803 -604 -1506 -627 -1562 -22 -57 -43 -103 -47 -103
-5 0 -115 264 -246 588 -282 697 -727 1794 -830 2047 -63 155 -235 580 -637
1573 l-90 222 -929 0 -929 0 3 -3212z"/>
<path d="M43220 18895 l0 -3215 785 0 785 0 0 3215 0 3215 -785 0 -785 0 0
-3215z"/>
<path d="M45920 18895 l0 -3215 785 0 785 0 0 1154 0 1155 663 4 c703 4 735 6
997 58 629 126 1143 476 1419 968 180 319 264 681 255 1091 -23 1013 -636
1728 -1659 1935 -300 61 -230 58 -1802 62 l-1443 4 0 -3216z m2672 1932 c191
-37 321 -100 423 -202 157 -158 226 -367 212 -645 -19 -361 -189 -596 -502
-693 -136 -43 -207 -47 -736 -47 l-499 0 0 799 c0 753 1 800 18 805 9 2 240 3
512 1 392 -2 511 -6 572 -18z"/>
<path d="M57250 19998 c6 -2282 3 -2122 56 -2406 105 -563 407 -1081 824
-1416 370 -298 859 -487 1400 -541 968 -97 1851 181 2405 756 412 428 632 938
685 1583 6 84 10 832 10 2132 l0 2004 -785 0 -785 0 0 -2000 c0 -1749 -2
-2013 -15 -2110 -53 -376 -231 -655 -515 -804 -169 -88 -346 -126 -596 -127
-370 -1 -623 89 -820 293 -145 149 -231 334 -281 603 -16 82 -18 266 -20 2118
l-4 2027 -782 0 -782 0 5 -2112z"/>
<path d="M63730 18895 l0 -3215 785 0 785 0 2 1917 3 1917 32 -84 c18 -47 338
-902 712 -1900 374 -998 682 -1823 686 -1832 7 -17 47 -18 640 -18 l633 0 230
618 c127 339 373 1000 548 1467 174 468 392 1053 485 1300 l168 450 1 -1917 0
-1918 785 0 785 0 0 3215 0 3215 -922 -2 -922 -3 -168 -420 c-93 -231 -427
-1063 -743 -1850 -316 -786 -640 -1595 -721 -1798 -81 -202 -151 -364 -154
-360 -4 5 -138 334 -300 733 -275 680 -504 1247 -674 1665 -90 222 -276 680
-586 1445 l-237 585 -926 3 -927 2 0 -3215z"/>
<path d="M39543 14349 c-328 -32 -604 -184 -709 -391 -57 -112 -78 -276 -53
-414 14 -81 78 -210 136 -274 125 -139 357 -227 755 -285 345 -50 514 -121
584 -247 26 -48 29 -62 29 -143 -1 -78 -4 -97 -28 -143 -65 -124 -193 -203
-378 -232 -94 -14 -274 -14 -365 0 -212 34 -394 143 -510 307 -25 34 -48 63
-51 63 -5 0 -261 -167 -277 -181 -16 -14 100 -173 186 -255 206 -198 461 -286
828 -286 439 0 743 134 895 394 52 89 76 177 82 303 9 204 -49 369 -171 483
-150 140 -351 214 -771 283 -441 72 -574 150 -575 335 0 87 24 149 82 207 95
95 257 149 448 149 229 -1 428 -76 552 -209 l47 -51 140 94 c78 52 141 98 141
102 0 4 -8 19 -18 33 -93 137 -242 243 -425 303 -153 50 -389 73 -574 55z"/>
<path d="M51990 14343 c-420 -24 -750 -219 -957 -563 -218 -362 -242 -886 -59
-1273 159 -334 423 -531 818 -608 149 -30 418 -32 551 -6 234 47 429 148 610
317 l77 72 0 489 0 489 -510 0 -510 0 0 -170 0 -170 330 0 330 0 0 -244 0
-243 -57 -40 c-175 -122 -356 -171 -587 -160 -298 15 -505 120 -644 325 -108
159 -153 311 -154 524 -1 269 70 468 232 651 121 136 322 236 510 253 36 3 78
7 94 9 50 6 205 -15 293 -41 108 -31 242 -99 320 -163 l62 -50 116 122 116
122 -58 55 c-225 212 -565 324 -923 303z"/>
<path d="M26765 14315 c-322 -50 -592 -216 -777 -476 -203 -284 -275 -694
-188 -1064 134 -571 570 -906 1176 -905 275 1 515 65 711 192 339 220 532 672
493 1157 -24 295 -136 560 -324 767 -205 227 -513 346 -882 343 -71 -1 -165
-7 -209 -14z m330 -340 c281 -25 555 -241 650 -513 48 -137 59 -206 59 -377 0
-236 -37 -367 -151 -542 -134 -205 -332 -307 -623 -320 -385 -17 -668 150
-805 477 -142 336 -96 739 114 1003 128 161 314 257 536 275 84 8 106 7 220
-3z"/>
<path d="M47370 14316 c-387 -69 -685 -284 -854 -617 -97 -190 -136 -364 -136
-604 0 -236 44 -425 142 -618 164 -319 413 -504 788 -584 107 -22 426 -25 540
-4 178 32 385 120 507 214 209 161 357 421 420 733 23 120 24 393 0 519 -69
376 -298 701 -602 852 -80 40 -171 71 -280 95 -117 25 -415 33 -525 14z m405
-352 c238 -45 450 -212 555 -436 78 -166 110 -431 76 -625 -47 -271 -196 -493
-397 -592 -139 -68 -217 -84 -409 -85 -180 0 -251 12 -364 61 -131 58 -227
133 -302 239 -226 317 -239 790 -30 1113 132 205 337 321 601 340 109 8 165 5
270 -15z"/>
<path d="M21760 14281 c0 -5 46 -79 102 -163 56 -84 260 -393 454 -686 l353
-533 3 -487 3 -487 193 -3 192 -2 0 487 0 488 212 310 c612 898 727 1069 722
1077 -3 4 -106 8 -230 8 l-224 0 -67 -102 c-74 -115 -434 -675 -522 -811 -31
-49 -63 -98 -71 -109 -15 -19 -33 7 -340 501 l-325 521 -227 0 c-134 0 -228
-4 -228 -9z"/>
<path d="M30362 14281 c-10 -6 -12 -181 -9 -777 4 -825 4 -829 58 -991 107
-326 373 -549 738 -620 125 -24 348 -22 473 5 172 36 320 111 444 226 118 108
189 219 239 373 57 173 58 194 62 1017 3 596 1 761 -8 767 -7 4 -93 8 -191 9
l-178 1 -1 -703 c0 -387 -2 -730 -5 -763 -30 -336 -218 -553 -514 -594 -161
-21 -342 13 -458 88 -155 101 -247 253 -272 453 -6 50 -10 365 -10 801 l0 718
-178 -1 c-98 -1 -184 -5 -190 -9z"/>
<path d="M34680 13106 l0 -1186 190 0 190 0 0 410 0 410 248 0 247 -1 85 -98
c47 -53 209 -237 360 -409 l274 -312 224 0 223 0 -18 31 c-10 18 -177 209
-370 425 -194 216 -353 395 -353 397 0 3 21 8 48 12 214 31 410 170 501 356
62 126 83 219 83 369 0 150 -21 242 -82 359 -104 200 -265 328 -489 389 l-96
26 -632 4 -633 3 0 -1185z m1211 824 c130 -24 229 -101 289 -224 99 -200 32
-459 -144 -561 -90 -52 -120 -55 -564 -57 l-412 -3 0 428 0 427 389 0 c218 0
412 -4 442 -10z"/>
<path d="M42850 14283 c0 -5 -1 -538 -3 -1186 l-2 -1177 813 0 812 0 0 175 0
175 -620 2 -620 3 -3 1005 -2 1005 -187 3 c-104 1 -188 -1 -188 -5z"/>
<path d="M55841 13922 c-91 -202 -215 -479 -277 -617 -62 -137 -225 -501 -363
-809 -138 -307 -251 -562 -251 -567 0 -5 89 -9 199 -9 l199 0 80 178 c44 97
94 210 112 250 l33 72 637 0 638 0 69 -152 c39 -84 90 -197 114 -250 l44 -98
204 0 c159 0 202 3 198 13 -3 6 -80 179 -172 382 -92 204 -213 474 -270 600
-56 127 -180 403 -275 615 -96 212 -211 468 -256 570 l-83 185 -208 2 -208 3
-164 -368z m629 -617 c127 -286 234 -526 237 -532 4 -10 -98 -13 -491 -13
-273 0 -496 4 -496 8 0 5 104 242 231 528 127 285 238 535 246 554 l15 35 13
-30 c7 -16 117 -264 245 -550z"/>
<path d="M59560 13105 l0 -1185 190 0 190 0 2 831 3 830 420 -523 c231 -287
532 -661 668 -830 l248 -308 144 0 145 0 0 1185 0 1185 -190 0 -190 0 0 -841
0 -842 -282 354 c-156 195 -458 573 -671 842 l-389 487 -144 0 -144 0 0 -1185z"/>
</g>
</svg>
